<?xml version="1.0" encoding="UTF-8" standalone="no"?>
<svg xmlns="http://www.w3.org/2000/svg" width="64" height="64" viewBox="0 0 64 64">
  <rect width="64" height="64" fill="#000000" />
  
  <!-- Calendar Grid -->
  <rect x="8" y="18" width="48" height="40" fill="#222222" stroke="#444444" stroke-width="1" />
  
  <!-- Calendar Grid Lines -->
  <line x1="24" y1="18" x2="24" y2="58" stroke="#444444" stroke-width="1" />
  <line x1="40" y1="18" x2="40" y2="58" stroke="#444444" stroke-width="1" />
  <line x1="8" y1="30" x2="56" y2="30" stroke="#444444" stroke-width="1" />
  <line x1="8" y1="42" x2="56" y2="42" stroke="#444444" stroke-width="1" />
  
  <!-- Purple Highlighted Cell -->
  <rect x="40" y="42" width="16" height="16" fill="#7E57C2" rx="2" ry="2" />
  
  <!-- Crown -->
  <path d="M32,4 L42,14 L32,18 L22,14 Z" fill="#FFD700" />
  <path d="M32,4 L42,14 L32,18 L22,14 L32,4 Z M32,4 L36,14 L32,12 L28,14 L32,4 Z" fill="#FFD700" />
  <circle cx="32" cy="4" r="2" fill="#FFD700" />
  <circle cx="22" cy="14" r="2" fill="#FFD700" />
  <circle cx="42" cy="14" r="2" fill="#FFD700" />
</svg>