<?xml version="1.0" encoding="UTF-8" standalone="no"?>
<svg xmlns="http://www.w3.org/2000/svg" viewBox="0 0 512 512" width="512" height="512">
  <!-- Calendar grid base -->
  <rect x="110" y="250" width="300" height="200" rx="20" ry="20" fill="#383838" stroke="#505050" stroke-width="4" />
  
  <!-- Calendar grid lines -->
  <line x1="210" y1="250" x2="210" y2="450" stroke="#505050" stroke-width="2" />
  <line x1="310" y1="250" x2="310" y2="450" stroke="#505050" stroke-width="2" />
  <line x1="110" y1="316" x2="410" y2="316" stroke="#505050" stroke-width="2" />
  <line x1="110" y1="383" x2="410" y2="383" stroke="#505050" stroke-width="2" />
  
  <!-- One highlighted cell -->
  <rect x="310" y="316" width="100" height="67" fill="#7E57C2" opacity="0.8" />
  
  <!-- Crown base -->
  <path d="M120,190 L400,190 L400,230 L120,230 Z" fill="#FFC107" stroke="#E65100" stroke-width="8" />
  
  <!-- Crown points -->
  <path d="M120,190 L180,80 L260,140 L340,80 L400,190 Z" fill="#FFC107" stroke="#E65100" stroke-width="8" />
  
  <!-- Crown jewels -->
  <circle cx="180" cy="130" r="20" fill="#3F51B5" stroke="#1A237E" stroke-width="3" />
  <circle cx="260" cy="110" r="25" fill="#FF5722" stroke="#BF360C" stroke-width="3" />
  <circle cx="340" cy="130" r="20" fill="#3F51B5" stroke="#1A237E" stroke-width="3" />
  <circle cx="220" cy="150" r="15" fill="#4CAF50" stroke="#1B5E20" stroke-width="2" />
  <circle cx="300" cy="150" r="15" fill="#4CAF50" stroke="#1B5E20" stroke-width="2" />
  
  <!-- Highlights on jewels -->
  <circle cx="175" cy="125" r="8" fill="#C5CAE9" opacity="0.7" />
  <circle cx="255" cy="105" r="10" fill="#FFCCBC" opacity="0.7" />
  <circle cx="335" cy="125" r="8" fill="#C5CAE9" opacity="0.7" />
  <circle cx="215" cy="145" r="6" fill="#C8E6C9" opacity="0.7" />
  <circle cx="295" cy="145" r="6" fill="#C8E6C9" opacity="0.7" />
  
  <!-- Drop shadow filter -->
  <filter id="shadow" x="-20%" y="-20%" width="140%" height="140%">
    <feDropShadow dx="0" dy="6" stdDeviation="12" flood-color="#000000" flood-opacity="0.3" />
  </filter>
  
  <!-- Apply shadow to the whole icon (fix the empty group) -->
  <g filter="url(#shadow)">
    <!-- Add shadow to specific elements by duplicating them in this group -->
    <rect x="110" y="250" width="300" height="200" rx="20" ry="20" fill="#383838" stroke="#505050" stroke-width="4" />
    <path d="M120,190 L400,190 L400,230 L120,230 Z" fill="#FFC107" stroke="#E65100" stroke-width="8" />
    <path d="M120,190 L180,80 L260,140 L340,80 L400,190 Z" fill="#FFC107" stroke="#E65100" stroke-width="8" />
  </g>
</svg>