<?xml version="1.0" encoding="UTF-8" standalone="no"?>
<svg xmlns="http://www.w3.org/2000/svg" width="64" height="64" viewBox="0 0 64 64">
  <!-- Transparent background -->
  <rect width="64" height="64" fill="none" />
  
  <!-- Calendar Grid -->
  <rect x="8" y="18" width="48" height="40" fill="#333333" stroke="#444444" stroke-width="1" rx="4" ry="4" />
  
  <!-- Calendar Grid Lines -->
  <line x1="24" y1="18" x2="24" y2="58" stroke="#444444" stroke-width="1" />
  <line x1="40" y1="18" x2="40" y2="58" stroke="#444444" stroke-width="1" />
  <line x1="8" y1="30" x2="56" y2="30" stroke="#444444" stroke-width="1" />
  <line x1="8" y1="42" x2="56" y2="42" stroke="#444444" stroke-width="1" />
  
  <!-- Purple Highlighted Cell -->
  <rect x="40" y="42" width="16" height="16" fill="#7E57C2" rx="2" ry="2" />
  
  <!-- Crown with shadow effect for better visibility -->
  <filter id="shadow" x="-20%" y="-20%" width="140%" height="140%">
    <feGaussianBlur in="SourceAlpha" stdDeviation="1" />
    <feOffset dx="0" dy="1" result="offsetblur" />
    <feFlood flood-color="#000000" flood-opacity="0.5" />
    <feComposite in2="offsetblur" operator="in" />
    <feMerge>
      <feMergeNode />
      <feMergeNode in="SourceGraphic" />
    </feMerge>
  </filter>
  
  <!-- Crown enlarged and repositioned -->
  <g transform="translate(0, -2) scale(1.2)" filter="url(#shadow)">
    <path d="M32,6 L45,17 L32,23 L19,17 Z" fill="#FFD700" stroke="#FFA000" stroke-width="0.5" />
    <path d="M32,6 L45,17 L32,23 L19,17 L32,6 Z M32,6 L37,17 L32,14 L27,17 L32,6 Z" fill="#FFD700" stroke="#FFA000" stroke-width="0.5" />
    <circle cx="32" cy="6" r="2.2" fill="#FFD700" stroke="#FFA000" stroke-width="0.5" />
    <circle cx="19" cy="17" r="2.2" fill="#FFD700" stroke="#FFA000" stroke-width="0.5" />
    <circle cx="45" cy="17" r="2.2" fill="#FFD700" stroke="#FFA000" stroke-width="0.5" />
    
    <!-- Crown Ruby - enlarged -->
    <circle cx="32" cy="10" r="2" fill="#D32F2F" stroke="#B71C1C" stroke-width="0.5" />
    
    <!-- Gold outline/glow effect -->
    <path d="M32,6 L45,17 L32,23 L19,17 Z" fill="none" stroke="#FFC107" stroke-width="1" opacity="0.6" />
  </g>
</svg>