<?xml version="1.0" encoding="UTF-8" standalone="no"?>
<svg xmlns="http://www.w3.org/2000/svg" width="64" height="64" viewBox="0 0 64 64">
  <!-- Transparent background -->
  <rect width="64" height="64" fill="none" />
  
  <!-- Calendar Grid -->
  <rect x="8" y="18" width="48" height="40" fill="#333333" stroke="#444444" stroke-width="1" rx="4" ry="4" />
  
  <!-- Calendar Grid Lines -->
  <line x1="24" y1="18" x2="24" y2="58" stroke="#444444" stroke-width="1" />
  <line x1="40" y1="18" x2="40" y2="58" stroke="#444444" stroke-width="1" />
  <line x1="8" y1="30" x2="56" y2="30" stroke="#444444" stroke-width="1" />
  <line x1="8" y1="42" x2="56" y2="42" stroke="#444444" stroke-width="1" />
  
  <!-- Purple Highlighted Cell -->
  <rect x="40" y="42" width="16" height="16" fill="#7E57C2" rx="2" ry="2" />
  
  <!-- Crown -->
  <path d="M32,6 L42,16 L32,21 L22,16 Z" fill="#FFD700" />
  <path d="M32,6 L42,16 L32,21 L22,16 L32,6 Z M32,6 L36,16 L32,14 L28,16 L32,6 Z" fill="#FFD700" />
  <circle cx="32" cy="6" r="2" fill="#FFD700" />
  <circle cx="22" cy="16" r="2" fill="#FFD700" />
  <circle cx="42" cy="16" r="2" fill="#FFD700" />
  
  <!-- Crown Ruby -->
  <circle cx="32" cy="9" r="1.5" fill="#D32F2F" />
</svg>