<?xml version="1.0" encoding="UTF-8" standalone="no"?>
<svg xmlns="http://www.w3.org/2000/svg" viewBox="0 0 512 512" width="512" height="512">
  <!-- Background glow effect -->
  <defs>
    <radialGradient id="crown-glow" cx="50%" cy="30%" r="70%" fx="50%" fy="30%">
      <stop offset="0%" stop-color="#FF8D00" stop-opacity="0.9" />
      <stop offset="100%" stop-color="#000000" stop-opacity="0" />
    </radialGradient>
    <filter id="shadow" x="-20%" y="-20%" width="140%" height="140%">
      <feDropShadow dx="0" dy="4" stdDeviation="8" flood-color="#000" flood-opacity="0.5"/>
    </filter>
    <filter id="glow" x="-20%" y="-20%" width="140%" height="140%">
      <feGaussianBlur stdDeviation="8" result="blur" />
      <feComposite in="SourceGraphic" in2="blur" operator="over" />
    </filter>
  </defs>
  
  <!-- Dark background (transparent for favicon) -->
  <rect width="512" height="512" fill="transparent" />
  
  <!-- Background glow -->
  <rect width="512" height="512" fill="url(#crown-glow)" opacity="0.7" />
  
  <!-- Calendar grid base with rounded corners -->
  <g filter="url(#shadow)">
    <rect x="100" y="230" width="312" height="270" rx="30" ry="30" fill="#333333" stroke="#444444" stroke-width="4" />
  </g>
  
  <!-- Calendar grid lines -->
  <line x1="204" y1="230" x2="204" y2="500" stroke="#444444" stroke-width="2" />
  <line x1="308" y1="230" x2="308" y2="500" stroke="#444444" stroke-width="2" />
  <line x1="100" y1="320" x2="412" y2="320" stroke="#444444" stroke-width="2" />
  <line x1="100" y1="410" x2="412" y2="410" stroke="#444444" stroke-width="2" />
  
  <!-- Highlighted cell -->
  <rect x="308" y="320" width="104" height="90" fill="#5D4BB7" rx="2" ry="2" />
  
  <!-- Crown base shape -->
  <g filter="url(#shadow)">
    <!-- Base bar of crown -->
    <rect x="100" y="190" width="312" height="40" fill="#FFD700" stroke="#CD7F32" stroke-width="8" rx="8" ry="8" />
    
    <!-- Crown shape -->
    <path d="M100,190 L160,100 L220,160 L256,90 L292,160 L352,100 L412,190 Z" fill="#FFD700" stroke="#CD7F32" stroke-width="8" />
  </g>
  
  <!-- Crown jewels -->
  <circle cx="160" cy="130" r="18" fill="#3F51B5" stroke="#1A237E" stroke-width="3" />
  <circle cx="256" cy="110" r="24" fill="#FF5722" stroke="#BF360C" stroke-width="3" />
  <circle cx="352" cy="130" r="18" fill="#3F51B5" stroke="#1A237E" stroke-width="3" />
  <circle cx="220" cy="145" r="14" fill="#4CAF50" stroke="#1B5E20" stroke-width="2" />
  <circle cx="292" cy="145" r="14" fill="#4CAF50" stroke="#1B5E20" stroke-width="2" />
  
  <!-- Highlights on jewels -->
  <circle cx="154" cy="124" r="6" fill="#C5CAE9" opacity="0.8" />
  <circle cx="250" cy="104" r="9" fill="#FFCCBC" opacity="0.8" />
  <circle cx="346" cy="124" r="6" fill="#C5CAE9" opacity="0.8" />
  <circle cx="216" cy="141" r="5" fill="#C8E6C9" opacity="0.8" />
  <circle cx="288" cy="141" r="5" fill="#C8E6C9" opacity="0.8" />
  
  <!-- Crown glow effect -->
  <rect x="100" y="90" width="312" height="140" fill="url(#crown-glow)" opacity="0.5" />
</svg>